<svg id="logo" xmlns="http://www.w3.org/2000/svg" viewBox="0 0 288 288"><defs><style>.cls-1{fill:#d1b966;}</style></defs><title>Scribblography Logo</title><path class="cls-1" d="M202.81,108.61l-8.38-3a242.7,242.7,0,0,1-27,42.9s13.36,20.73,8.36,34.46h0c5-13.73,28.55-21,28.55-21a242.06,242.06,0,0,1,6.88-50.23Zm-18,49.5h0l-1.6-10.47,8-7h0l1.6,10.48Z" transform="translate(0 0)"/><polygon points="191.16 140.64 192.76 151.12 184.8 158.12 184.79 158.11 183.2 147.63 191.16 140.63 191.16 140.64"/><path d="M288,144.1c-.68,1.34-1.21,2.53-1.89,3.62l-.13.18c-.37.43-.94.72-1.35,1.13-2.85,3-6.27,5.38-8.66,8.88-1.09,1.6-2.87,2.73-4.37,4-.49.42-1.11.72-1.64,1.12-2.95,2.19-4.2,6-7.39,7.93-3,1.85-5.19,4.59-7.7,7-6,5.75-11.38,12.07-17.63,17.56-5.36,4.68-10.3,9.85-15.44,14.79-1.07,1-2.27,1.93-3.34,2.95-1.79,1.7-3.52,3.48-5.28,5.21a37.27,37.27,0,0,1-2.86,2.76c-8.41,6.79-15.89,14.57-23.32,22.4-3.3,3.48-6.36,7.19-9.55,10.77-1.22,1.37-2.49,2.68-3.76,4-4.82,5-9.55,10.13-14.53,15-4.64,4.51-9.49,8.8-14.37,13.06-2.34,2.05-3.86,2-6.17,0a68.62,68.62,0,0,1-10.7-11c-2.74-3.7-6.25-6.83-9.39-10.24-1.79-2-3.62-3.9-5.26-6-4.31-5.48-8.55-11-13.77-15.68-6-5.44-11.67-11.31-17.46-17-4-4-8.08-7.88-12-11.95-2.53-2.64-4.74-5.55-7.21-8.24-5.93-6.51-11.59-13.31-18-19.32-7-6.59-13.67-13.55-20.41-20.43-1.27-1.29-2.56-2.6-3.93-3.8A149.81,149.81,0,0,1,4.29,146.69a18.25,18.25,0,0,0-1.87-1.86l-.62-.56c-2-1.84-2.41-3.47-.84-5.61a69.46,69.46,0,0,1,5.59-6.31c2.06-2.16,4.24-4.19,6.37-6.27,5.31-5.23,10.6-10.51,16-15.7,4.4-4.26,9-8.36,13.32-12.64,11-10.8,22-21.55,32.91-32.47A239,239,0,0,1,96.59,46.06c3.48-2.75,6.31-6.35,9.4-9.59,2-2,3.78-4.18,5.79-6.15,3.78-3.72,7.61-7.41,11.52-11,2.06-1.89,4.36-3.55,6.5-5.37a47.69,47.69,0,0,0,3.61-3.36c3-3.1,5.88-6.3,8.9-9.37,1.71-1.75,3.43-1.55,5.17.26,3.91,4.05,7.85,8.08,11.78,12.11,2.43,2.5,4.81,5,7.3,7.49,3.08,3,6.27,5.93,9.35,9,1.89,1.86,3.75,3.76,5.48,5.78,2.6,3,5.24,6,8.75,8.06a13.41,13.41,0,0,1,3,2.62,108.19,108.19,0,0,0,8.22,8.23c5.23,4.75,10.78,9.13,16.19,13.68,1.27,1.06,2.53,2.12,3.76,3.23,2.82,2.59,5.59,5.25,8.45,7.8.6.55,1.2,1.08,1.81,1.61A100.43,100.43,0,0,1,247.42,98.8a137.82,137.82,0,0,0,13.39,15.36c3.22,3.33,6.57,6.54,9.88,9.79a19.52,19.52,0,0,0,2.93,2.69c5.47,3.5,8.88,8.89,12.79,13.82A15.8,15.8,0,0,1,288,144.1Zm-85.19-35.49-8.38-3a242.7,242.7,0,0,1-27,42.9s13.36,20.73,8.36,34.46h0c5-13.73,28.55-21,28.55-21a242.06,242.06,0,0,1,6.88-50.23Zm79.9,35.12c-1.37-2.9-6.22-9.81-7.92-11.18-7.64-6.11-14.25-13.3-21-20.3a97.91,97.91,0,0,1-8.9-10.31,105.54,105.54,0,0,0-14.63-16.66L228.8,84c-3.31,6.12-6.28,11.62-7.73,14.24a52,52,0,0,1,9.56,6.41l-1.51,4.16-3,8.23-13.07-4.73s-4.28,22.18-1.43,56.6c0,0-20.36,7.66-40.34,40.19-38.13,6.51-65.52-6.48-70.49-39.79-6.46,4.27-13.18,7.24-20,8.24-24.55,3.63-35.15-18.33-24.09-34.76-9.33,19.55,6.93,35.62,29.06,29.06a54.33,54.33,0,0,0,14.46-7.09c-.8-9.6.1-20.71,3-33.37,7.59-33.62,36.22-84.14,51-80.11C167.64,55,157.45,94.06,144,118.62c-7.12,13-17.46,27.87-29.43,39.5,3.86,29.51,26.85,37,49.41,29.92.66-25.88-6.66-38.87-6.66-38.87,24.32-24.54,35.29-44.28,35.29-44.28l-13-4.78L184,87.72A51.76,51.76,0,0,1,195.48,89c.36-1.85,1-4.92,1.74-8.61,1.22-6,2.81-13.67,4.22-20.44-1.89-1.63-3.78-3.27-5.64-4.93-2.39-2.12-4.56-4.48-6.88-6.68-3.29-3.14-6.65-6.19-9.91-9.34-2.77-2.7-5.43-5.53-8.18-8.25-3.35-3.31-6.79-6.54-10.1-9.92-5-5.12-10-10.32-15.14-15.62a23.54,23.54,0,0,0-3.17,2.09A105.46,105.46,0,0,1,131,17.14a19.68,19.68,0,0,0-2.19,2.1c-2.28,2.23-4.56,4.48-6.85,6.7-3.38,3.29-7.07,6.29-10.07,9.89A113.49,113.49,0,0,1,100.46,47.2C96.7,50.56,92.75,53.7,89,57.09c-3.24,2.94-6.31,6-9.47,9.09l-8.28,8.1c-1.55,1.52-3.08,3.11-4.64,4.63Q57.81,87.58,49,96.21c-.48.49-.86,1-1.32,1.53L35.19,110.88a1.44,1.44,0,0,1-.39.31c-4.2,2-7,5.71-10.25,8.86C19,125.42,13.44,130.76,7.92,136.16c-1.09,1-2,2.22-3.39,3.72a37.56,37.56,0,0,0,6.15,7.72c1.91,1.84,3.86,3.65,5.79,5.47,2.23,2.1,4.46,4.2,6.64,6.36,4.41,4.38,8.62,9,13,13.37s8.94,8.2,13.1,12.59c6,6.33,11.79,13,17.64,19.46q14.16,15.83,29.7,30.29a205.78,205.78,0,0,1,15,15.71c3.94,4.58,7.44,9.54,11.76,13.82,3.23,3.18,6.06,6.76,9.2,10s5.9,6.43,9.71,8.91a54.89,54.89,0,0,0,9.33-7.81c6.33-6.28,12.52-12.69,18.7-19.11,3.63-3.76,7.15-7.62,10.68-11.47,4.1-4.45,7.83-9.32,12.3-13.34,8.62-7.74,16.62-16.17,25.62-23.52a129.34,129.34,0,0,0,12.43-11.79c4.16-4.4,8.92-8.12,12.91-12.75,5.82-6.73,12.48-12.72,18.74-19.06,2.5-2.5,4.8-5.2,8-6.9a5.28,5.28,0,0,0,1.4-1.24c.25-.29.48-.59.73-.87,1.66-1.88,3.43-3.7,4.9-5.74S282.07,146.44,282.71,143.73ZM135.35,127.08C151.86,101.61,163.49,53.54,151,56.2c-14.73,3.16-31.46,53-35.3,74.73a98,98,0,0,0-1.59,22.5A154.52,154.52,0,0,0,135.35,127.08Z" transform="translate(0 0)"/></svg>